<svg width="80" height="28" viewBox="0 0 80 28" fill="none" xmlns="http://www.w3.org/2000/svg">
<path d="M12.2945 5.472C10.2065 5.472 8.61049 6.252 7.50649 7.812C6.40249 9.372 5.85048 11.508 5.85048 14.22C5.85048 16.956 6.35448 19.08 7.36248 20.592C8.39449 22.08 10.0385 22.824 12.2945 22.824C13.3505 22.824 14.3945 22.704 15.4265 22.464C16.4825 22.224 17.6225 21.888 18.8465 21.456V26.028C17.7185 26.484 16.6025 26.82 15.4985 27.036C14.3945 27.252 13.1585 27.36 11.7905 27.36C9.15049 27.36 6.96649 26.82 5.23848 25.74C3.53448 24.636 2.27448 23.1 1.45848 21.132C0.642485 19.14 0.234484 16.824 0.234484 14.184C0.234484 11.592 0.702484 9.3 1.63848 7.308C2.57448 5.316 3.93048 3.756 5.70648 2.628C7.50649 1.5 9.70249 0.935999 12.2945 0.935999C13.5665 0.935999 14.8385 1.104 16.1105 1.44C17.4065 1.752 18.6425 2.184 19.8185 2.736L18.0545 7.164C17.0945 6.708 16.1225 6.312 15.1385 5.976C14.1785 5.64 13.2305 5.472 12.2945 5.472ZM33.9204 27H22.2204V23.904L25.3524 22.464V5.832L22.2204 4.392V1.296H33.9204V4.392L30.7884 5.832V22.464L33.9204 23.904V27ZM53.0965 27H38.3005V1.296H53.0965V5.76H43.7365V11.412H52.4485V15.876H43.7365V22.5H53.0965V27ZM79.7571 13.896C79.7571 18.24 78.5211 21.516 76.0491 23.724C73.6011 25.908 70.1571 27 65.7171 27H58.4451V1.296H66.5091C69.1971 1.296 71.5251 1.776 73.4931 2.736C75.4851 3.696 77.0211 5.112 78.1011 6.984C79.2051 8.832 79.7571 11.136 79.7571 13.896ZM74.1051 14.04C74.1051 11.184 73.4811 9.096 72.2331 7.776C70.9851 6.432 69.1731 5.76 66.7971 5.76H63.8811V22.5H66.2211C71.4771 22.5 74.1051 19.68 74.1051 14.04Z" fill="url(#paint0_linear)"/>
<defs>
<linearGradient id="paint0_linear" x1="82" y1="-11" x2="-2" y2="-11" gradientUnits="userSpaceOnUse">
<stop stop-color="#0B49E6"/>
<stop offset="1" stop-color="#0EB7FF"/>
</linearGradient>
</defs>
</svg>
